Coordinates
version=1
nRows=26
nColumns=24
inDegrees=yes

Units are S.I. units (second, meters, Newtons, ...)
Angles are in degrees.

endheader
time	pelvis_tilt	pelvis_list	pelvis_rotation	pelvis_tx	pelvis_ty	pelvis_tz	hip_flexion_r	hip_adduction_r	hip_rotation_r	knee_angle_r	ankle_angle_r	subtalar_angle_r	mtp_angle_r	hip_flexion_l	hip_adduction_l	hip_rotation_l	knee_angle_l	ankle_angle_l	subtalar_angle_l	mtp_angle_l	lumbar_extension	lumbar_bending	lumbar_rotation
      1.16233333	     -0.46561127	     -1.30865923	      2.59114404	      0.08616293	      1.01568187	      0.31871534	     22.70321683	     -2.77183879	    -10.62541051	    -74.30305629	     -1.49495526	     -6.24633231	     -1.95362451	     13.21074990	      0.05704275	     -6.11091901	    -14.31737125	     -0.09310883	     -9.32886490	      1.89729785	    -11.15533705	     -0.56915383	     -0.69242676
      1.16650000	     -0.46861354	     -1.41230952	      2.61995054	      0.09092147	      1.01663265	      0.31861194	     23.38479715	     -2.61376624	    -10.55850241	    -74.22855461	     -1.10926124	     -6.17168659	     -1.96494408	     12.79979495	     -0.05144943	     -6.09207747	    -14.08284323	      0.03239942	     -9.22216646	      1.89988805	    -11.18835620	     -0.44403967	     -0.75001603
      1.17066667	     -0.48750287	     -1.51625570	      2.64504793	      0.09570456	      1.01756217	      0.31848840	     24.06017456	     -2.46221055	    -10.50401467	    -74.07205139	     -0.75397663	     -6.15170134	     -1.97406131	     12.39706927	     -0.15775453	     -6.07617064	    -13.83116983	      0.14187865	     -9.12431259	      1.90124016	    -11.19895023	     -0.31801226	     -0.80191443
      1.17483333	     -0.50400493	     -1.61013053	      2.66940763	      0.10048120	      1.01846756	      0.31834047	     24.71269959	     -2.32861107	    -10.45986343	    -73.84213122	     -0.42449869	     -6.18747552	     -1.98137571	     11.98525816	     -0.25087489	     -6.05865484	    -13.56587169	      0.24800320	     -9.03801073	      1.90160244	    -11.21302836	     -0.19767007	     -0.84918930
      1.17900000	     -0.52444884	     -1.70466281	      2.68172805	      0.10526911	      1.01934379	      0.31820254	     25.34997792	     -2.19664462	    -10.42196581	    -73.54419528	     -0.11432390	     -6.27168457	     -1.99068280	     11.57250936	     -0.34663068	     -6.05400431	    -13.29352593	      0.34677241	     -8.94699964	      1.90054493	    -11.21783460	     -0.07768559	     -0.89790885
      1.18316667	     -0.54862760	     -1.79294020	      2.69850851	      0.11006488	      1.02020251	      0.31804942	     25.96459681	     -2.07626002	    -10.39680544	    -73.16729100	      0.17794125	     -6.42057038	     -2.00139490	     11.15719241	     -0.43366001	     -6.05064489	    -13.00544492	      0.43816622	     -8.86503316	      1.89838325	    -11.21956287	      0.04024420	     -0.94505445
      1.18733333	     -0.57083570	     -1.86582033	      2.72791748	      0.11490962	      1.02104164	      0.31780192	     26.54502411	     -2.00006801	    -10.40571692	    -72.71896917	      0.43780327	     -6.58870207	     -2.00875875	     10.72613917	     -0.49357892	     -6.02728188	    -12.69462006	      0.53247372	     -8.81142623	      1.89684841	    -11.20144286	      0.13800643	     -0.98174525
      1.19150000	     -0.59380816	     -1.98974295	      2.71832246	      0.11973516	      1.02188665	      0.31773573	     27.10526967	     -1.82518408	    -10.39046917	    -72.17048136	      0.61874062	     -6.92442450	     -2.04301800	     10.30621741	     -0.63379341	     -6.08417940	    -12.40447591	      0.62804996	     -8.66043095	      1.88740085	    -11.20865137	      0.30537110	     -1.05927614
      1.19566667	     -0.61703901	     -2.05430000	      2.74564886	      0.12452701	      1.02264570	      0.31748761	     27.64478607	     -1.76225242	    -10.41297708	    -71.59594065	      0.90618557	     -7.18424113	     -2.06086225	      9.87920450	     -0.68445035	     -6.06324775	    -12.09017782	      0.69198934	     -8.61332594	      1.88247001	    -11.21852679	      0.41237843	     -1.08972473
      1.19983333	     -0.61696884	     -2.15749890	      2.76942206	      0.12940049	      1.02347520	      0.31726632	     28.11320532	     -1.65353021	    -10.46274426	    -70.90300301	      1.04279924	     -7.57287591	     -2.10608948	      9.41961590	     -0.78527136	     -6.08155921	    -11.76810390	      0.77635935	     -8.52599956	      1.87083413	    -11.22919662	      0.56074671	     -1.16162537
      1.20400000	     -0.61563749	     -2.23906351	      2.80213732	      0.13424834	      1.02424979	      0.31700715	     28.55761898	     -1.58100836	    -10.52582933	    -70.16070821	      1.23166843	     -7.94426566	     -2.15783429	      8.95787099	     -0.85726002	     -6.08199492	    -11.43924113	      0.84372515	     -8.45745990	      1.85781780	    -11.25316910	      0.69359126	     -1.22829290
      1.20816667	     -0.61484444	     -2.31793688	      2.84275487	      0.13909958	      1.02498729	      0.31672276	     28.97251221	     -1.52016245	    -10.60591121	    -69.34927502	      1.40029893	     -8.33817987	     -2.21727758	      8.49593974	     -0.92386129	     -6.07039284	    -11.10839854	      0.90867162	     -8.40053275	      1.84389252	    -11.27735834	      0.83138066	     -1.29984762
      1.21233333	     -0.61466856	     -2.40019835	      2.89494787	      0.14396446	      1.02569439	      0.31641365	     29.35428176	     -1.46654166	    -10.71018378	    -68.46368876	      1.54547925	     -8.74678834	     -2.29008200	      8.03619972	     -0.99221070	     -6.05171996	    -10.77796321	      0.97681822	     -8.33976739	      1.82772448	    -11.29862153	      0.97140127	     -1.38307036
      1.21650000	     -0.54319018	     -2.49289339	      2.98122790	      0.14882857	      1.02649357	      0.31604108	     29.61446955	     -1.41992217	    -10.86218592	    -67.49349835	      1.71378755	     -9.13939415	     -2.45095044	      7.50602693	     -1.07396968	     -6.02373744	    -10.45412089	      1.07197675	     -8.21330845	      1.79366418	    -11.40559544	      1.13179986	     -1.50045477
      1.22066667	     -0.59672641	     -2.53740583	      3.01453552	      0.15370747	      1.02700720	      0.31577498	     30.00752834	     -1.40341403	    -10.95028554	    -66.49965802	      1.82150239	     -9.54576054	     -2.52801650	      7.09770490	     -1.09867476	     -6.00582024	    -10.11730081	      1.10418346	     -8.23702684	      1.77727346	    -11.36084424	      1.22555351	     -1.56895254
      1.22483333	     -0.66054515	     -2.56861285	      3.06614222	      0.15858265	      1.02744315	      0.31550866	     30.38148435	     -1.40959852	    -11.05529651	    -65.45469967	      2.00943466	     -9.92598861	     -2.58361082	      6.71235977	     -1.11109947	     -5.99398660	     -9.80189212	      1.13760707	     -8.22069963	      1.76636214	    -11.30584832	      1.29072590	     -1.64096432
      1.22900000	     -0.66909859	     -2.63902076	      3.14275247	      0.16347755	      1.02797354	      0.31516034	     30.64638629	     -1.39146614	    -11.21513398	    -64.29534628	      1.99728768	    -10.35820275	     -2.70138836	      6.26755437	     -1.16365822	     -5.95562251	     -9.48268824	      1.23853303	     -8.16511091	      1.74519040	    -11.31419169	      1.44594113	     -1.77096703
      1.23316667	     -0.70882242	     -2.66219553	      3.20184224	      0.16835669	      1.02836120	      0.31493068	     30.92956265	     -1.40115375	    -11.33026002	    -63.11611976	      2.16342203	    -10.70193389	     -2.78426659	      5.85928145	     -1.17226263	     -5.93813597	     -9.17158729	      1.26157853	     -8.14889642	      1.72926267	    -11.28688854	      1.49750766	     -1.86084596
      1.23733333	     -0.73363346	     -2.69573356	      3.26554255	      0.17326054	      1.02874484	      0.31467958	     31.15849436	     -1.40434926	    -11.46538054	    -61.85383662	      2.19433877	    -11.06398520	     -2.88422268	      5.43300608	     -1.19147821	     -5.90956729	     -8.85965698	      1.32110206	     -8.12682566	      1.71102751	    -11.27849848	      1.58750813	     -1.96215329
      1.24150000	     -0.58920867	     -2.76959768	      3.41531176	      0.17816813	      1.02941495	      0.31422378	     31.13300576	     -1.41149052	    -11.71430649	    -60.47390897	      2.23198381	    -11.31268596	     -3.19535994	      4.83486976	     -1.25566781	     -5.82744394	     -8.54952526	      1.45148430	     -7.98761269	      1.65324832	    -11.47337760	      1.75855080	     -2.14494562
      1.24566667	     -0.71450618	     -2.72823419	      3.42708676	      0.18308705	      1.02948301	      0.31412902	     31.43802577	     -1.45980000	    -11.76714074	    -59.14668192	      2.27023514	    -11.54922456	     -3.27186482	      4.50978029	     -1.19553104	     -5.83344433	     -8.24292513	      1.47318155	     -8.04153519	      1.63766496	    -11.35004426	      1.73464409	     -2.19722994
      1.24983333	     -0.80823945	     -2.70631851	      3.47188670	      0.18800976	      1.02957177	      0.31400713	     31.66372021	     -1.49561522	    -11.85915056	    -57.73488185	      2.24863646	    -11.79499844	     -3.36917783	      4.16464220	     -1.16001878	     -5.82305593	     -7.95766819	      1.53197702	     -8.04232031	      1.61856938	    -11.26192888	      1.74023441	     -2.27368584
      1.25400000	     -0.88497087	     -2.67994968	      3.52749371	      0.19295519	      1.02964605	      0.31388319	     31.83352216	     -1.53805032	    -11.96371830	    -56.25916811	      2.21786781	    -11.96192769	     -3.48058551	      3.80460861	     -1.12221058	     -5.81077286	     -7.68191901	      1.60834832	     -8.01571523	      1.59612750	    -11.19048049	      1.74687000	     -2.36339611
      1.25816667	     -0.79281397	     -2.67066413	      3.65546943	      0.19787501	      1.02997507	      0.31359554	     31.76208033	     -1.59361456	    -12.15507558	    -54.69279336	      2.16915247	    -12.06771510	     -3.82685755	      3.27238533	     -1.10836510	     -5.74597037	     -7.40828440	      1.74395512	     -7.89711574	      1.52055517	    -11.33083470	      1.79914896	     -2.51857924
      1.26233333	     -0.95174382	     -2.55843719	      3.64993429	      0.20282282	      1.02973921	      0.31365796	     31.99557305	     -1.67901814	    -12.15560361	    -53.17736369	      2.14703418	    -12.08630547	     -3.89213764	      2.99103562	     -0.98020146	     -5.77180149	     -7.13537231	      1.79533252	     -7.94023625	      1.50467554	    -11.17645670	      1.67455235	     -2.55981025
      1.26650000	     -1.09913877	     -2.43547048	      3.66399563	      0.20777205	      1.02947500	      0.31370788	     32.18112800	     -1.77612279	    -12.16138820	    -51.60551656	      2.06820041	    -12.09046914	     -3.95901741	      2.70849563	     -0.84322582	     -5.78092165	     -6.88594608	      1.87215388	     -7.94257793	      1.48829612	    -11.02953880	      1.55090258	     -2.60586699
